<svg xmlns="http://www.w3.org/2000/svg" version="1.1" x="0" y="0" width="200" height="200">
<g>
<path d="M31.2391,60.4354L168.773,60.4354C178.418,60.4354 186.214,68.2429 186.214,77.8884L186.214,157.117C186.214,166.562 178.419,174.575 168.773,174.575L31.2391,174.575C21.5971,174.575 13.786,166.562 13.786,157.117L13.786,77.8841C13.786,68.2421 21.5975,60.435 31.2391,60.435ZM30.6279,81.3797C28.1622,81.3797 26.1148,83.4271 26.1148,86.1021C26.1148,88.5639 28.1622,90.6151 30.6279,90.6151L98.5741,90.6151C101.241,90.6151 103.296,88.5639 103.296,86.1021C103.296,83.4271 101.241,81.3797 98.5741,81.3797ZM30.6279,97.1837C28.1622,97.1837 26.1148,99.235 26.1148,101.697C26.1148,104.368 28.1622,106.427 30.6279,106.427L98.5741,106.427C101.241,106.427 103.296,104.368 103.296,101.697C103.296,99.2354 101.241,97.1841 98.5741,97.1841L30.6279,97.1841ZM30.6279,112.791C28.1622,112.791 26.1148,114.842 26.1148,117.505C26.1148,119.971 28.1622,122.022 30.6279,122.022L98.5741,122.022C101.241,122.022 103.296,119.971 103.296,117.505C103.296,114.842 101.241,112.791 98.5741,112.791ZM30.6279,128.595C28.1622,128.595 26.1148,130.646 26.1148,133.104C26.1148,135.767 28.1622,137.818 30.6279,137.818L98.5741,137.818C101.241,137.818 103.296,135.767 103.296,133.104C103.296,130.646 101.241,128.595 98.5741,128.595ZM30.6279,144.197C28.1622,144.197 26.1148,146.241 26.1148,148.912C26.1148,151.378 28.1622,153.429 30.6279,153.429L98.5741,153.429C101.241,153.429 103.296,151.378 103.296,148.912C103.296,146.241 101.241,144.197 98.5741,144.197ZM145.374,85.8931C127.929,85.8931 113.766,100.06 113.766,117.505C113.766,134.954 127.929,149.117 145.374,149.117C162.816,149.117 176.986,134.954 176.986,117.505C176.99,100.06 162.816,85.8931 145.374,85.8931ZM145.374,92.0552C131.409,92.0552 119.925,103.338 119.925,117.505C119.925,131.466 131.409,142.958 145.374,142.958C159.332,142.958 170.832,131.466 170.832,117.505C170.832,103.338 159.332,92.0552 145.374,92.0552Z" style="fill:black;fill-rule:nonzero;"/>
</g>
<g>
<path d="M172.649,68.9806L60.0334,32.6412L62.3619,25.4253L174.977,61.7647Z" style="fill:black;fill-rule:nonzero;"/>
</g>
</svg>
