<svg xmlns="http://www.w3.org/2000/svg" version="1.1" x="0" y="0" width="50" height="50">
<path d="M17.2193,12.0322l0,24.6895c-1.37911,-0.828198 -3.18498,-1.34741 -5.18713,-1.34741c-4.29689,0 -7.7807,2.32251 -7.7807,5.18713c0,2.86462 3.48381,5.18713 7.7807,5.18713c4.29685,0 7.7807,-2.32251 7.7807,-5.18713l0,-16.3913l23.3421,-6.95076l0,11.7217c-1.37787,-0.828198 -3.18623,-1.34741 -5.18713,-1.34741c-4.29561,0 -7.7807,2.32251 -7.7807,5.18713c0,2.86462 3.48509,5.18713 7.7807,5.18713c4.29561,0 7.7807,-2.32251 7.7807,-5.18713l0,-28.5292l-28.5292,7.7807ZM12.0322,43.155c-3.16602,0 -5.18713,-1.53489 -5.18713,-2.59357c0,-1.05867 2.0212,-2.59357 5.18713,-2.59357c3.16589,0 5.18713,1.53489 5.18713,2.59357c0,1.05867 -2.02116,2.59357 -5.18713,2.59357ZM19.8129,21.5765l0,-5.06388l23.3421,-6.36742l0,4.48054l-23.3421,6.95076ZM37.9678,35.3743c-3.16598,0 -5.18713,-1.53489 -5.18713,-2.59357c0,-1.05867 2.02124,-2.59357 5.18713,-2.59357c3.16589,0 5.18713,1.53489 5.18713,2.59357c0,1.05867 -2.02116,2.59357 -5.18713,2.59357Z" style="fill:#fff;fill-rule:nonzero;"/>
</svg>
