<svg xmlns="http://www.w3.org/2000/svg" version="1.1" x="0" y="0" width="50" height="50">
<path d="M15.625,9.375L15.625,39.1235C13.9633,38.1256 11.7874,37.5 9.375,37.5C4.19766,37.5 -1.93156e-17,40.2984 -2.097e-17,43.75C-2.26244e-17,47.2016 4.19766,50 9.375,50C14.5523,50 18.75,47.2016 18.75,43.75L18.75,24L46.875,15.625L46.875,29.7485C45.2148,28.7506 43.0359,28.125 40.625,28.125C35.4492,28.125 31.25,30.9234 31.25,34.375C31.25,37.8266 35.4492,40.625 40.625,40.625C45.8008,40.625 50,37.8266 50,34.375L50,-2.39189e-17ZM9.375,46.875C5.56025,46.875 3.125,45.0256 3.125,43.75C3.125,42.4744 5.56035,40.625 9.375,40.625C13.1896,40.625 15.625,42.4744 15.625,43.75C15.625,45.0256 13.1897,46.875 9.375,46.875ZM18.75,20.875L18.75,14.7735L46.875,7.10137L46.875,12.5ZM40.625,37.5C36.8103,37.5 34.375,35.6506 34.375,34.375C34.375,33.0994 36.8104,31.25 40.625,31.25C44.4396,31.25 46.875,33.0994 46.875,34.375C46.875,35.6506 44.4397,37.5 40.625,37.5Z" style="fill:white;fill-rule:nonzero;"/>
</svg>
